<?xml version="1.0" encoding="UTF-8"?>
<!DOCTYPE svg PUBLIC "-//W3C//DTD SVG 1.1//EN" "http://www.w3.org/Graphics/SVG/1.1/DTD/svg11.dtd">
<!-- Creator: CorelDRAW -->
<svg xmlns="http://www.w3.org/2000/svg" xml:space="preserve" width="150mm" height="150mm" style="shape-rendering:geometricPrecision; text-rendering:geometricPrecision; image-rendering:optimizeQuality; fill-rule:evenodd; clip-rule:evenodd"
viewBox="0 0 150 150"
 xmlns:xlink="http://www.w3.org/1999/xlink">
 <defs>
  <style type="text/css">
   <![CDATA[
    .str0 {stroke:#222222;stroke-width:1.5}
    .fil0 {fill:#222222}
   ]]>
  </style>
 </defs>
 <g id="Capa_x0020_1">
  <metadata id="CorelCorpID_0Corel-Layer"/>
  <path class="fil0 str0" d="M63.4325 19.9385l0 -0.9254 5.5525 0 0 -0.9255 0.9254 0 0 0.9255 0.9252 0 0 1.8509 0.9255 0 0 -2.7764 0.9254 0 0 1.8509 0.9255 0 0 -1.8509 1.8507 0 0 1.8509 15.732 0 0 -1.8509 7.4032 0 0 -3.7016 0.9254 0 0 -0.9252 -0.9254 0 0 -0.9254 -0.9255 0 0 -2.7764 -0.9255 0 0 -0.9252 -0.9254 0 0 -0.9255 -1.8507 0 0 -0.9254 -1.8509 0 0 -0.9255 -1.8507 0 0 -0.9252 -1.8509 0 0 -0.9255 -9.2541 0 0 0.9255 -1.8506 0 0 0.9252 -0.9255 0 0 0.9255 -1.8506 0 0 0.9254 -0.9255 0 0 0.9255 -4.627 0 0 -0.9255 -7.4032 0 0 3.7016 -0.9255 0 0 5.5525 0.9255 0 0 1.8507 0.9252 0 0 0.9254 0.9255 0zm-25.9114 -6.4777l0 2.7761 0.9255 0 0 7.4032 0.9255 0 0 1.8509 0.9254 0 0 1.8507 0.9255 0 0 0.9254 0.9252 0 0 1.851 0.9254 0 0 0.9252 1.851 0 0 -0.9252 0.9252 0 0 -0.9255 -0.9252 0 0 -1.8509 0.9252 0 0 -0.9255 0.9254 0 0 -0.9252 0.9255 0 0 -3.7016 0.9254 0 0 -3.7018 0.9255 0 0 -1.8507 0.9252 0 0 -6.4779 -0.9252 0 0 5.5525 -2.7764 0 0 -0.9255 -0.9254 0 0 -1.8506 -0.9252 0 0 -0.9255 -3.7016 0 0 0.9255 2.7761 0 0 0.9254 -1.8509 0 0 0.9252 -0.9252 0 0 -0.9252 -0.9255 0 0 0.9252 -0.9254 0 0 -0.9252 -1.851 0zm13.8812 36.0906l0 1.8507 -0.9255 0 0 1.8509 -0.9252 0 0 0.9255 -0.9255 0 0 0.9254 -0.9254 0 0 0.9252 -0.9255 0 0 0.9255 -1.8506 0 0 0.9254 -0.9255 0 0 0.9255 -1.8509 0 0 0.9252 -0.9252 0 0 0.9255 -4.6271 0 0 0.9254 -1.8509 0 0 0.9255 -0.9254 0 0 0.9254 -3.7016 0 0 1.8507 -1.8507 0 0 0.9255 0.9252 0 0 0.9254 -0.9252 0 0 2.7761 1.8507 0 0 -0.9254 2.7764 0 0 0.9254 1.8506 0 0 0.9255 1.8509 0 0 0.9255 4.6271 0 0 -0.9255 1.8506 0 0 -0.9255 0.9255 0 0 -0.9254 1.8507 0 0 -0.9255 0.9254 0 0 -0.9252 0.9255 0 0 -0.9254 1.8509 0 0 -0.9255 2.7761 0 0 1.8509 0.9255 0 0 1.8507 0.9252 0 0 1.8509 0.9254 0 0 1.8507 0.9255 0 0 1.8509 0.9255 0 0 0.9254 0.9254 0 0 0.9252 0.9252 0 0 0.9255 0.9255 0 0 0.9255 1.8509 0 0 0.9254 0.9252 0 0 0.9255 0.9255 0 0 0.9252 0.9254 0 0 0.9254 0.9255 0 0 1.851 -12.9557 0 0 0.9252 -2.7761 0 0 0.9254 -1.8509 0 0 0.9255 -0.9255 0 0 0.9254 -0.9254 0 0 0.9255 -0.9252 0 0 1.8507 -0.9255 0 0 1.8509 -0.9255 0 0 3.7016 0.9255 0 0 2.7761 0.9255 0 0 0.9254 0.9252 0 0 0.9255 0.9254 0 0 1.8507 0.9255 0 0 0.9254 0.9254 0 0 0.9255 0.9255 0 0 0.9254 0.9252 0 0 1.8507 -0.9252 0 0 0.9255 -0.9255 0 0 0.9254 -1.8509 0 0 0.9252 -7.4031 0 0 -0.9252 -2.7762 0 0 -0.9254 -1.8509 0 0 -0.9255 -5.5525 0 0 0.9255 -1.8506 0 0 1.8506 -0.9255 0 0 3.7019 0.9255 0 0 0.9252 0.9254 0 0 2.7763 0.9252 0 0 0.9252 0.9255 0 0 0.9255 0.9254 0 0 0.9255 0.9255 0 0 0.9254 1.8507 0 0 0.9255 3.7015 0 0 -0.9255 2.7764 0 0 -0.9254 1.8507 0 0 -0.9255 0.9254 0 0 -0.9255 1.851 0 0 -0.9252 1.8506 0 0 -0.9254 2.7764 0 0 -0.9255 3.7016 0 0 -0.9254 6.4777 0 0 -0.9252 1.8509 0 0 -1.851 0.9252 0 0 -4.627 0.9255 0 0 -1.8507 0.9254 0 0 -0.9254 0.9255 0 0 -0.9255 0.9254 0 0 -0.9254 0.9252 0 0 -0.9255 0.9255 0 0 -0.9252 0.9255 0 0 0.9252 0.9254 0 0 0.9255 0.9252 0 0 0.9254 0.9255 0 0 0.9255 0.9254 0 0 0.9254 0.9255 0 0 0.9252 0.9255 0 0 1.851 1.8506 0 0 0.9254 0.9255 0 0 0.9252 0.9254 0 0 0.9255 0.9252 0 0 0.9254 1.851 0 0 0.9255 1.8509 0 0 0.9255 0.9252 0 0 0.9252 0.9254 0 0 0.9254 0.9255 0 0 1.8509 0.9255 0 0 2.7762 0.9252 0 0 2.7761 0.9254 0 0 2.7764 0.9255 0 0 1.8506 0.9254 0 0 1.8509 0.9255 0 0 4.6271 -0.9255 0 0 1.8506 -1.8509 0 0 0.9255 -2.7761 0 0 0.9255 -3.7016 0 0 0.9254 -1.8509 0 0 0.9252 -1.8507 0 0 0.9255 -0.9254 0 0 5.5525 1.8506 0 0 -0.9255 0.9255 0 0 -0.9254 1.8509 0 0 1.8509 2.7761 0 0 -0.9255 1.851 0 0 0.9255 1.8506 0 0 -1.8509 0.9255 0 0 -0.9255 0.9254 0 0 -0.9252 0.9255 0 0 -0.9255 3.7016 0 0 -0.9254 3.7016 0 0 -0.9255 2.7761 0 0 -0.9252 0.9254 0 0 -2.7764 -0.9254 0 0 -0.9254 -0.9255 0 0 -3.7016 -0.9252 0 0 -10.1793 0.9252 0 0 -7.4031 -0.9252 0 0 -1.851 -0.9254 0 0 -0.9254 -0.9255 0 0 -0.9255 -0.9255 0 0 -0.9252 -0.9254 0 0 -2.7764 -0.9252 0 0 -2.7761 0.9252 0 0 -1.8509 0.9254 0 0 -0.9252 0.9255 0 0 -0.9255 0.9255 0 0 -2.7761 8.3286 0 0 -0.9254 1.8506 0 0 -0.9255 1.851 0 0 -0.9255 0.9254 0 0 -1.8506 0.9252 0 0 -1.8509 0.9255 0 0 -3.7016 0.9254 0 0 -11.1048 0.9255 0 0 -3.7015 0.9255 0 0 -3.7019 0.9252 0 0 -1.8506 0.9254 0 0 -1.851 0.9255 0 0 -0.9252 0.9254 0 0 -1.8509 0.9252 0 0 -2.7761 0.9255 0 0 -1.8509 0.9255 0 0 -4.6271 0.9254 0 0 -5.5522 -0.9254 0 0 -1.8509 -1.851 0 0 -0.9255 -7.4031 0 0 0.9255 -1.8507 0 0 0.9254 -1.8509 0 0 0.9255 -0.9255 0 0 0.9252 -0.9252 0 0 0.9255 -1.8509 0 0 0.9254 -0.9254 0 0 0.9255 -0.9255 0 0 1.8506 -0.9252 0 0 0.9255 -0.9255 0 0 0.9255 -0.9254 0 0 1.8506 -0.9255 0 0 1.8509 -0.9252 0 0 6.4777 0.9252 0 0 5.5525 0.9255 0 0 -0.9254 0.9254 0 0 -0.9255 0.9255 0 0 -0.9252 0.9252 0 0 -0.9254 0.9255 0 0 -0.9255 0.9254 0 0 -0.9255 0.9255 0 0 -5.5522 -0.9255 0 0 -1.8509 -0.9254 0 0 -1.8507 0.9254 0 0 -1.8509 0.9255 0 0 -0.9255 0.9254 0 0 -0.9254 0.9252 0 0 -0.9252 0.9255 0 0 -0.9255 0.9255 0 0 -0.9254 1.8506 0 0 -0.9255 0.9255 0 0 -0.9252 5.5525 0 0 2.7761 0.9254 0 0 0.9255 -0.9254 0 0 4.627 -0.9255 0 0 1.8507 -0.9254 0 0 1.8509 -0.9252 0 0 1.8507 -0.9255 0 0 1.8509 -0.9255 0 0 1.8506 -0.9254 0 0 1.851 -0.9255 0 0 3.7015 -0.9252 0 0 5.5525 -0.9254 0 0 11.1048 -0.9255 0 0 1.8509 -0.9255 0 0 1.8507 -0.9252 0 0 0.9254 -0.9254 0 0 0.9255 -0.9255 0 0 0.9252 -3.7016 0 0 -0.9252 -1.8509 0 0 -0.9255 -0.9252 0 0 -0.9254 -0.9254 0 0 -1.8507 -0.9255 0 0 -1.8509 -0.9255 0 0 -1.8509 -0.9254 0 0 -0.9252 -0.9252 0 0 -0.9255 -0.9255 0 0 -0.9255 -0.9254 0 0 -0.9254 -0.9255 0 0 -0.9252 -0.9252 0 0 -0.9255 -1.8509 0 0 -0.9254 -0.9255 0 0 -0.9255 -0.9254 0 0 -0.9255 -1.8507 0 0 -0.9252 -0.9255 0 0 -0.9254 -0.9254 0 0 -0.9255 -0.9252 0 0 -0.9254 -0.9255 0 0 -0.9252 -0.9254 0 0 -4.6271 0.9254 0 0 -1.8509 0.9255 0 0 -0.9255 0.9252 0 0 -0.9252 0.9254 0 0 -0.9254 0.9255 0 0 -1.8509 1.8507 0 0 -1.8507 0.9254 0 0 -0.9255 1.8509 0 0 -0.9254 0.9255 0 0 -0.9255 0.9252 0 0 -0.9252 0.9255 0 0 -0.9254 0.9254 0 0 -0.9255 0.9255 0 0 -0.9255 0.9252 0 0 -0.9254 0.9254 0 0 -0.9252 0.9255 0 0 -0.9255 0.9255 0 0 -0.9254 1.8506 0 0 -0.9255 0.9255 0 0 -2.7761 -1.8507 0 0 -0.9255 -2.7764 0 0 0.9255 -0.9254 0 0 0.9254 0.9254 0 0 0.9255 -0.9254 0 0 0.9252 -0.9252 0 0 0.9255 -0.9255 0 0 -0.9255 -0.9254 0 0 -0.9252 -0.9255 0 0 -0.9255 1.8509 0 0 -0.9254 -1.8509 0 0 -0.9255 -0.9252 0 0 1.8509 -7.4034 0 0 1.8507 -7.4032 0 0 0.9255 -7.4031 0 0 0.9254 -7.4032 0 0 1.8507 -8.3286 0 0 -7.4032 -0.9255 0 0 5.5525 -0.9254 0zm-2.7762 -27.762l-0.9254 0 0 3.7016 -0.9255 0 0 0.9252 -0.9254 0 0 0.9255 -0.9252 0 0 1.8509 0.9252 0 0 0.9255 -0.9252 0 0 0.9252 -0.9255 0 0 1.8509 0.9255 0 0 0.9254 0.9252 0 0 0.9252 0.9254 0 0 1.851 0.9255 0 0 0.9254 0.9254 0 0 1.8507 0.9255 0 0 0.9254 0.9252 0 0 1.851 0.9255 0 0 2.7761 0.9254 0 0 -0.9255 0.9255 0 0 0.9255 0.9252 0 0 1.8509 1.8509 0 0 -0.9255 1.8509 0 0 -0.9254 0.9252 0 0 -0.9255 2.7764 0 0 0.9255 7.4032 0 0 -3.7016 7.4031 0 0 0.9255 7.4032 0 0 -2.7764 7.4034 0 0 -4.6271 8.3286 0 0 0.9255 0.9252 0 0 2.7764 -0.9252 0 0 1.8506 2.7761 0 0 0.9255 0.9255 0 0 -1.8509 -1.8509 0 0 -1.8507 1.8509 0 0 -1.8509 0.9252 0 0 -0.9255 -0.9252 0 0 -0.9252 0.9252 0 0 -3.7015 0.9255 0 0 0.9252 0.9254 0 0 -2.7762 -0.9254 0 0 -1.8509 -0.9255 0 0 -1.8506 -0.9252 0 0 1.8506 -0.9255 0 0 1.8509 -0.9254 0 0 -0.9254 -1.8507 0 0 1.8509 -15.732 0 0 1.8507 -7.4032 0 0 -0.9252 -0.9254 0 0 1.8506 -0.9252 0 0 -0.9254 -1.851 0 0 -2.7762 1.851 0 0 -0.9254 -2.7764 0 0 -0.9255 -1.8507 0 0 -0.9252 1.8507 0 0 -0.9254 -1.8507 0 0 -0.9255 0.9252 0 0 -0.9255 0.9255 0 0 -0.9252 2.7764 0 0 -1.8509 -1.851 0 0 -1.8509 -0.9254 0 0 2.7764 -0.9255 0 0 -1.8509 -0.9252 0 0 -0.9255 -0.9254 0 0 0.9255 -5.5525 0 0 1.8509 1.8509 0 0 -0.9255 4.627 0 0 2.7761 -3.7016 0 0 -0.9252 -1.8509 0 0 0.9252 -0.9254 0 0 0.9255 -0.9255 0 0 3.7016 0.9255 0 0 0.9254 7.4031 0 0 0.9255 0.9255 0 0 2.7761 -0.9255 0 0 0.9255 -0.9252 0 0 0.9254 -1.8509 0 0 0.9252 -11.1047 0 0 -0.9252 -0.9255 0 0 -0.9254 -0.9255 0 0 -0.9255 -0.9254 0 0 -0.9254 -0.9252 0 0 -0.9252 -0.9255 0 0 -0.9255 -0.9254 0 0 -1.8509 -0.9255 0 0 -0.9255 -0.9252 0 0 -2.7761 -0.9255 0 0 -1.8507zm4.6271 23.135l0 6.4777 8.3286 0 0 -1.8507 7.4032 0 0 -0.9254 7.4031 0 0 -0.9255 7.4032 0 0 -1.8507 7.4034 0 0 -1.8509 0.9252 0 0 0.9255 1.8509 0 0 0.9254 -1.8509 0 0 0.9255 0.9255 0 0 0.9252 0.9254 0 0 0.9255 0.9255 0 0 -0.9255 0.9252 0 0 -0.9252 0.9254 0 0 -0.9255 -0.9254 0 0 -0.9254 0.9254 0 0 -0.9255 2.7764 0 0 0.9255 1.8507 0 0 0.9254 1.8509 0 0 0.9255 0.9252 0 0 -1.8509 0.9255 0 0 -5.5525 -0.9255 0 0 -2.7761 1.8509 0 0 -1.851 -0.9254 0 0 -2.7761 -0.9255 0 0 1.8509 -0.9252 0 0 0.9252 0.9252 0 0 0.9255 -0.9252 0 0 1.8509 -1.8509 0 0 1.8507 1.8509 0 0 1.8509 -0.9255 0 0 -0.9255 -2.7761 0 0 -1.8506 0.9252 0 0 -2.7764 -0.9252 0 0 -0.9255 -8.3286 0 0 4.6271 -7.4034 0 0 2.7764 -7.4032 0 0 -0.9255 -7.4031 0 0 3.7016 -7.4032 0 0 -0.9255 -2.7764 0 0 0.9255 -0.9252 0 0 0.9254 -1.8509 0 0 0.9255 -1.8509 0 0 -1.8509 -0.9252 0zm20.3588 -24.9859l0.9255 0 0 1.8509 -2.7764 0 0 0.9252 -0.9255 0 0 0.9255 -0.9252 0 0 0.9255 1.8507 0 0 0.9254 -1.8507 0 0 0.9252 1.8507 0 0 0.9255 2.7764 0 0 0.9254 -1.851 0 0 2.7762 1.851 0 0 0.9254 0.9252 0 0 -1.8506 0.9254 0 0 0.9252 7.4032 0 0 -1.8507 15.732 0 0 -1.8509 1.8507 0 0 0.9254 0.9254 0 0 -1.8509 0.9255 0 0 -2.7761 1.8507 0 0 0.9255 0.9254 0 0 -1.851 -0.9254 0 0 -1.8506 -0.9255 0 0 -1.8509 -0.9252 0 0 -2.7762 -0.9255 0 0 -1.8509 -0.9254 0 0 -0.9252 -0.9255 0 0 -0.9254 -0.9252 0 0 -0.9255 -0.9254 0 0 -0.9255 -0.9255 0 0 1.851 0.9255 0 0 0.9254 0.9254 0 0 0.9252 -0.9254 0 0 3.7016 -7.4032 0 0 1.8509 -15.732 0 0 -1.8509 -1.8507 0 0 1.8509zm-37.9415 -7.4031l0.9254 0 0 0.9254 2.7762 0 0 0.9252 0.9254 0 0 -0.9252 0.9255 0 0 0.9252 0.9252 0 0 -0.9252 1.8509 0 0 -0.9254 -2.7761 0 0 -0.9255 3.7016 0 0 0.9255 0.9252 0 0 1.8506 0.9254 0 0 0.9255 2.7764 0 0 -5.5525 0.9252 0 0 -0.9252 -0.9252 0 0 -0.9255 -0.9255 0 0 -1.8509 -2.7763 0 0 -0.9252 -2.7762 0 0 1.8507 0.9255 0 0 0.9254 -1.8509 0 0 -0.9254 -4.6271 0 0 1.8509 0.9255 0 0 1.8506 -1.8507 0 0 0.9255 -0.9254 0 0 0.9255zm1.8506 48.1208l0 -0.9255 -0.9252 0 0 -0.9252 -0.9254 0 0 -0.9255 -0.9255 0 0 -0.9254 -0.9254 0 0 -0.9255 -0.9252 0 0 -0.9252 -3.7019 0 0 0.9252 -0.9252 0 0 0.9255 -0.9254 0 0 1.8509 -0.9255 0 0 1.8507 1.8509 0 0 1.8509 -0.9254 0 0 2.7761 2.7761 0 0 -1.8507 3.7016 0 0 -0.9254 0.9254 0 0 -0.9255 1.8509 0 0 -0.9254 0.9252 0z"/>
 </g>
</svg>
